#!OML:ASF H:\Dans Jumps\Project 1\Capture day 1\Session 1\subject.ASF
:FULLY-SPECIFIED
:DEGREES
618
root 0.625232 17.5787 2.96068 7.54466 -0.222061 -0.716656
lowerback -2.75122 -0.268089 -0.918756
upperback 0.969723 -0.364395 1.69401
thorax 2.55551 -0.210855 2.23873
lowerneck -12.5204 0.467141 -1.64918
upperneck 17.2612 0.88968 0.45751
head 7.35428 0.359741 0.510364
rclavicle -4.12478e-015 1.59028e-015
rhumerus -28.548 -23.4179 -76.1142
rradius 19.5409
rwrist 41.8227
rhand -19.008 -26.4572
rfingers 7.12502
rthumb 7.29745 -56.3114
lclavicle -4.12478e-015 1.59028e-015
lhumerus -25.0713 3.87849 88.5397
lradius 13.2901
lwrist -0.0820066
lhand -23.9169 -3.48633
lfingers 7.12502
lthumb 2.5576 26.4781
rfemur -13.384 -2.45473 19.3317
rtibia 25.8584
rfoot -17.5415 -3.09478
rtoes 5.4496
lfemur -12.5098 6.85616 -17.9912
ltibia 22.6061
lfoot -13.5415 6.21858
ltoes -5.148
619
root 0.624968 17.5777 2.96474 7.53745 -0.221817 -0.717194
lowerback -2.75834 -0.265456 -0.912828
upperback 0.965456 -0.361016 1.69241
thorax 2.55491 -0.209021 2.23389
lowerneck -12.5114 0.465524 -1.65083
upperneck 17.229 0.886806 0.461239
head 7.34218 0.358814 0.511385
rclavicle -1.88845e-015 -1.35174e-014
rhumerus -28.5521 -23.4105 -76.1291
rradius 19.539
rwrist 41.8127
rhand -19.0028 -26.4554
rfingers 7.12502
rthumb 7.30245 -56.3094
lclavicle -1.88845e-015 -1.35174e-014
lhumerus -25.0882 3.87124 88.5372
lradius 13.2794
lwrist -0.092394
lhand -23.8965 -3.47047
lfingers 7.12502
lthumb 2.57727 26.4937
rfemur -13.3704 -2.44598 19.3335
rtibia 25.8776
rfoot -17.5601 -3.11033
rtoes 5.42056
lfemur -12.5007 6.86666 -17.9883
ltibia 22.6333
lfoot -13.5637 6.2218
ltoes -5.16047
620
root 0.624703 17.5767 2.96872 7.53084 -0.21918 -0.720651
lowerback -2.76729 -0.263421 -0.904655
upperback 0.96403 -0.358594 1.6927
thorax 2.55832 -0.207699 2.22969
lowerneck -12.5028 0.463078 -1.65289
upperneck 17.1892 0.883641 0.460859
head 7.32772 0.357388 0.511071
rclavicle 4.57205e-015 -8.74653e-015
rhumerus -28.55 -23.3992 -76.1477
rradius 19.5395
rwrist 41.7942
rhand -19.0006 -26.457
rfingers 7.12502
rthumb 7.30455 -56.3109
lclavicle 4.57205e-015 -8.74653e-015
lhumerus -25.1006 3.871 88.5352
lradius 13.2726
lwrist -0.103116
lhand -23.8889 -3.46034
lfingers 7.12502
lthumb 2.58463 26.5038
rfemur -13.3572 -2.43631 19.339
rtibia 25.8961
rfoot -17.5757 -3.12959
rtoes 5.38976
lfemur -12.4933 6.87479 -17.9822
ltibia 22.6614
lfoot -13.5852 6.22587
ltoes -5.16864
621
root 0.624484 17.5758 2.97262 7.52367 -0.215918 -0.723592
lowerback -2.77481 -0.261851 -0.897491
upperback 0.962578 -0.356787 1.69421
thorax 2.56093 -0.206704 2.22729
lowerneck -12.4912 0.461789 -1.65399
upperneck 17.1449 0.882793 0.45522
head 7.31126 0.356678 0.509083
rclavicle -3.97569e-016 4.77083e-015
rhumerus -28.5475 -23.3823 -76.167
rradius 19.5427
rwrist 41.7685
rhand -18.9967 -26.467
rfingers 7.12502
rthumb 7.30835 -56.3208
lclavicle -3.97569e-016 4.77083e-015
lhumerus -25.114 3.87143 88.5354
lradius 13.2667
lwrist -0.112191
lhand -23.9073 -3.48708
lfingers 7.12502
lthumb 2.56686 26.4772
rfemur -13.3434 -2.42615 19.344
rtibia 25.914
rfoot -17.5883 -3.15167
rtoes 5.35456
lfemur -12.4863 6.8818 -17.9768
ltibia 22.6906
lfoot -13.6072 6.22971
ltoes -5.169
622
root 0.62436 17.5749 2.97652 7.51533 -0.212964 -0.724743
lowerback -2.78164 -0.260629 -0.892402
upperback 0.962086 -0.355388 1.69623
thorax 2.56419 -0.205963 2.22657
lowerneck -12.4823 0.461769 -1.65663
upperneck 17.1014 0.883927 0.450206
head 7.29548 0.356871 0.507763
rclavicle -1.39149e-015 3.97569e-015
rhumerus -28.5431 -23.3642 -76.1863
rradius 19.5466
rwrist 41.7436
rhand -18.9869 -26.4836
rfingers 7.12502
rthumb 7.31782 -56.337
lclavicle -1.39149e-015 3.97569e-015
lhumerus -25.1259 3.87685 88.5361
lradius 13.2596
lwrist -0.120345
lhand -23.9185 -3.50273
lfingers 7.12502
lthumb 2.55606 26.4617
rfemur -13.3286 -2.4175 19.3464
rtibia 25.9326
rfoot -17.6012 -3.17144
rtoes 5.32613
lfemur -12.4778 6.88648 -17.9736
ltibia 22.7195
lfoot -13.6306 6.23465
ltoes -5.15999
623
root 0.62425 17.574 2.98037 7.50694 -0.20925 -0.726515
lowerback -2.78706 -0.260139 -0.887511
upperback 0.960697 -0.35498 1.69936
thorax 2.56578 -0.205709 2.22705
lowerneck -12.474 0.463973 -1.66109
upperneck 17.0601 0.888128 0.447126
head 7.28055 0.358578 0.507689
rclavicle 4.42296e-015 -1.98785e-015
rhumerus -28.5392 -23.3458 -76.2041
rradius 19.5493
rwrist 41.7235
rhand -18.9718 -26.5013
rfingers 7.12502
rthumb 7.33237 -56.3543
lclavicle 4.42296e-015 -1.98785e-015
lhumerus -25.1405 3.88001 88.5393
lradius 13.2545
lwrist -0.119857
lhand -23.9039 -3.4845
lfingers 7.12502
lthumb 2.5702 26.4798
rfemur -13.3144 -2.40719 19.3496
rtibia 25.9525
rfoot -17.6142 -3.19334
rtoes 5.29879
lfemur -12.4695 6.88914 -17.9695
ltibia 22.7478
lfoot -13.6524 6.24102
ltoes -5.15426
624
root 0.624211 17.5731 2.98419 7.49866 -0.205445 -0.724611
lowerback -2.79148 -0.25989 -0.885976
upperback 0.958199 -0.354738 1.70174
thorax 2.56569 -0.205564 2.22864
lowerneck -12.4607 0.464932 -1.66613
upperneck 17.0167 0.890704 0.443648
head 7.26402 0.359452 0.507391
rclavicle -2.48481e-015 -4.77083e-015
rhumerus -28.5375 -23.3276 -76.2198
rradius 19.5513
rwrist 41.7078
rhand -18.9548 -26.518
rfingers 7.12502
rthumb 7.34873 -56.3704
lclavicle -2.48481e-015 -4.77083e-015
lhumerus -25.1587 3.88426 88.5437
lradius 13.2509
lwrist -0.120355
lhand -23.907 -3.48694
lfingers 7.12502
lthumb 2.56718 26.4774
rfemur -13.3009 -2.4003 19.3483
rtibia 25.9741
rfoot -17.6287 -3.21152
rtoes 5.27156
lfemur -12.4609 6.89158 -17.9696
ltibia 22.7757
lfoot -13.6736 6.24701
ltoes -5.14934
